<?xml version="1.0" encoding="UTF-8" standalone="no"?>
<svg
   xmlns:dc="http://purl.org/dc/elements/1.1/"
   xmlns:cc="http://creativecommons.org/ns#"
   xmlns:rdf="http://www.w3.org/1999/02/22-rdf-syntax-ns#"
   xmlns:svg="http://www.w3.org/2000/svg"
   xmlns="http://www.w3.org/2000/svg"
   xmlns:sodipodi="http://sodipodi.sourceforge.net/DTD/sodipodi-0.dtd"
   xmlns:inkscape="http://www.inkscape.org/namespaces/inkscape"
   width="100mm"
   height="100mm"
   viewBox="0 0 100 100"
   version="1.1"
   id="svg8"
   inkscape:version="1.0.2 (e86c870879, 2021-01-15)"
   sodipodi:docname="logo.svg">
  <defs
     id="defs2" />
  <sodipodi:namedview
     id="base"
     pagecolor="#ffffff"
     bordercolor="#666666"
     borderopacity="1.0"
     inkscape:pageopacity="0.0"
     inkscape:pageshadow="2"
     inkscape:zoom="1.5940473"
     inkscape:cx="191.89062"
     inkscape:cy="214.35891"
     inkscape:document-units="mm"
     inkscape:current-layer="layer1"
     inkscape:document-rotation="0"
     showgrid="true"
     showguides="true"
     inkscape:lockguides="false"
     inkscape:snap-grids="true"
     inkscape:snap-to-guides="true"
     inkscape:snap-center="false"
     inkscape:snap-bbox="true"
     inkscape:bbox-nodes="true"
     inkscape:window-width="1920"
     inkscape:window-height="1017"
     inkscape:window-x="-8"
     inkscape:window-y="-8"
     inkscape:window-maximized="1"
     inkscape:snap-global="true"
     inkscape:snap-bbox-midpoints="true"
     inkscape:bbox-paths="true">
    <inkscape:grid
       type="xygrid"
       id="grid835" />
  </sodipodi:namedview>
  <metadata
     id="metadata5">
    <rdf:RDF>
      <cc:Work
         rdf:about="">
        <dc:format>image/svg+xml</dc:format>
        <dc:type
           rdf:resource="http://purl.org/dc/dcmitype/StillImage" />
        <dc:title />
      </cc:Work>
    </rdf:RDF>
  </metadata>
  <g
     inkscape:label="レイヤー 1"
     inkscape:groupmode="layer"
     id="layer1">
    <ellipse
       style="fill:#000000;stroke:#000000;stroke-width:0.737801;stroke-linecap:round"
       id="path833"
       cx="50.270832"
       cy="14.605494"
       rx="4.1830668"
       ry="4.1830683" />
    <circle
       style="fill:none;fill-opacity:1;stroke:#000000;stroke-width:0.191272;stroke-linecap:round;stroke-miterlimit:4;stroke-dasharray:none;stroke-opacity:1"
       id="path837"
       cx="50.270832"
       cy="25.118561"
       r="0.95567095" />
    <path
       id="path855"
       style="fill:#000000;fill-opacity:1;stroke:none;stroke-width:0.198672;stroke-linecap:butt;stroke-linejoin:miter;stroke-miterlimit:4;stroke-dasharray:none;stroke-opacity:1"
       d="m 50.270833,27.746824 c 0,1.57696 -1.887778,3.845232 -4.272988,4.732934 -6.910599,2.645902 -7.149425,2.788948 -14.562233,5.104582 -2.395901,0.933118 -3.664834,9.369295 -5.026559,10.879586 C 23.537194,52.199086 11.529787,58.369282 8.8294434,57.84047 7.7080727,57.260338 6.325405,55.429861 2.6458315,50.173324 l 5.2565331,8.410451 c 8.4104464,-1.051301 17.2871364,-7.32585 19.0323414,-9.068543 3.153919,-2.628266 2.398293,-7.200008 6.077865,-9.828279 3.153919,-1.57696 12.00173,-3.529678 15.155649,-0.901412 2.102613,1.57696 1.57696,12.615677 2.102613,49.411402 0.525653,-36.795725 0,-47.834442 2.102613,-49.411402 3.153919,-2.628266 12.00173,-0.675548 15.155649,0.901412 3.679572,2.628271 2.923946,7.200013 6.077865,9.828279 1.745205,1.742693 10.621895,8.017242 19.032341,9.068543 l 5.256532,-8.410451 c -3.679572,5.256537 -5.06224,7.087014 -6.183611,7.667146 C 89.011879,58.369282 77.004472,52.199086 74.132613,48.463926 72.770887,46.953635 71.501955,38.517458 69.106054,37.58434 61.693246,35.268706 61.45442,35.12566 54.543821,32.479758 52.158611,31.592056 50.270833,29.323784 50.270833,27.746824 Z" />
    <ellipse
       style="fill:#000000;stroke:#000000;stroke-width:0.0851997;stroke-linecap:round"
       id="path833-0"
       cx="50.270832"
       cy="21.96464"
       rx="0.4830521"
       ry="0.48305228" />
  </g>
</svg>
